<svg width="14" height="13" viewBox="0 0 14 13" fill="none" xmlns="http://www.w3.org/2000/svg">
<path d="M13.0316 4.44234L11.865 3.859C11.6491 3.754 11.3808 3.83567 11.2758 4.0515C11.165 4.27317 11.2525 4.53567 11.4683 4.64067L12.3958 5.1015V7.89567L10.2083 7.9015V1.9165C10.2083 0.749837 9.42663 0.166504 8.45829 0.166504H3.79163C2.82329 0.166504 2.04163 0.749837 2.04163 1.9165V11.3957H1.16663C0.927459 11.3957 0.729126 11.594 0.729126 11.8332C0.729126 12.0723 0.927459 12.2707 1.16663 12.2707H11.0833C11.3225 12.2707 11.5208 12.0723 11.5208 11.8332C11.5208 11.594 11.3225 11.3957 11.0833 11.3957H10.2083V8.7765L12.8333 8.77067C13.0783 8.77067 13.2708 8.57234 13.2708 8.33317V4.83317C13.2708 4.66984 13.1775 4.51817 13.0316 4.44234ZM3.49996 3.019C3.49996 2.20817 3.99579 1.9165 4.60246 1.9165H7.65329C8.25413 1.9165 8.74996 2.20817 8.74996 3.019V3.7365C8.74996 4.5415 8.25413 4.83317 7.64746 4.83317H4.60246C3.99579 4.83317 3.49996 4.5415 3.49996 3.73067V3.019ZM3.79163 6.14567H5.54163C5.78079 6.14567 5.97913 6.344 5.97913 6.58317C5.97913 6.82234 5.78079 7.02067 5.54163 7.02067H3.79163C3.55246 7.02067 3.35413 6.82234 3.35413 6.58317C3.35413 6.344 3.55246 6.14567 3.79163 6.14567Z" fill="#90A3BF"/>
</svg>
