<svg width="16" height="18" viewBox="0 0 16 18" fill="none" xmlns="http://www.w3.org/2000/svg">
<path d="M9.94135 0.707984C9.01685 1.33148 8.35035 2.34198 8.15685 3.43848C7.96335 4.49198 8.32885 4.64248 9.64035 4.08348C10.7798 3.56748 11.6828 2.34198 11.8548 1.05198C11.9623 0.191985 11.9623 0.170485 11.3603 0.170485C11.0163 0.170485 10.3713 0.406985 9.94135 0.707984Z" fill="white"/>
<path d="M3.64184 4.83644C1.83585 5.78244 0.954346 7.41644 0.954346 9.86744C0.954346 12.6194 2.17984 15.6294 3.98584 17.2419C4.80284 17.9944 4.95334 18.0374 5.87784 17.9514C6.41534 17.8869 7.27534 17.7149 7.79134 17.5644C8.58684 17.3064 8.84484 17.3279 9.74784 17.6504C11.0593 18.1019 12.1988 18.1234 12.8868 17.6719C13.5318 17.2419 15.0153 15.0704 15.3593 14.0599C15.5958 13.3289 15.5743 13.2859 14.6283 12.4044C12.8868 10.8134 12.8008 8.68494 14.4348 7.00794L15.2303 6.19094L14.6928 5.63194C13.6178 4.44944 11.7688 4.14845 9.61884 4.83644C8.54384 5.18044 8.41484 5.18044 7.33984 4.83644C5.89934 4.38494 4.48034 4.38494 3.64184 4.83644Z" fill="white"/>
</svg>
