<svg width="18" height="18" viewBox="0 0 18 18" fill="none" xmlns="http://www.w3.org/2000/svg">
<path d="M8.96634 4.18103C10.1934 4.16187 11.3801 4.61869 12.2776 5.45564L14.6934 3.09292C13.1431 1.64015 11.0908 0.843494 8.96634 0.869771C7.37894 0.869365 5.82271 1.31054 4.47169 2.14397C3.12067 2.9774 2.02813 4.17021 1.31622 5.58903L4.08528 7.73931C4.424 6.7099 5.07726 5.81276 5.95296 5.17437C6.82867 4.53598 7.88266 4.18854 8.96634 4.18103Z" fill="#EA4335"/>
<path d="M17.1858 9.62267C17.1962 9.03418 17.1356 8.44658 17.0055 7.87256H8.96509V11.0504H13.6843C13.5943 11.6079 13.3924 12.1413 13.0908 12.6187C12.7892 13.0961 12.3941 13.5075 11.9293 13.8281L14.6354 15.9216C15.4772 15.1083 16.1391 14.1275 16.5784 13.0425C17.0177 11.9576 17.2246 10.7926 17.1858 9.62267Z" fill="#4285F4"/>
<path d="M4.09389 11.127C3.90688 10.5819 3.8105 10.0099 3.80859 9.43369C3.81191 8.85837 3.90483 8.28709 4.08401 7.74039L1.31619 5.58887C0.715564 6.78131 0.40271 8.0979 0.40271 9.43307C0.40271 10.7682 0.715564 12.0848 1.31619 13.2773L4.09389 11.127Z" fill="#FBBC05"/>
<path d="M8.96507 17.997C11.0507 18.056 13.0798 17.3139 14.6353 15.9233L11.9342 13.8298C11.0592 14.4165 10.0231 14.7157 8.97001 14.6857C7.8864 14.6803 6.83203 14.3337 5.95669 13.6949C5.08135 13.0561 4.42956 12.1578 4.09389 11.1274L1.32483 13.2777C2.03462 14.6961 3.12532 15.8889 4.47473 16.7224C5.82414 17.5559 7.37898 17.9973 8.96507 17.997Z" fill="#34A853"/>
</svg>
