<svg width="24" height="24" viewBox="0 0 24 24" fill="none" xmlns="http://www.w3.org/2000/svg">
<path d="M16.0124 1.97852H13.6206V2.56521C13.6206 2.87263 13.3713 3.12185 13.0639 3.12185H8.84274C8.53532 3.12185 8.2861 2.87263 8.2861 2.56521V1.97852H5.89429C5.58687 1.97852 5.33765 2.22774 5.33765 2.53516V18.4435C5.33765 18.7509 5.58687 19.0001 5.89429 19.0001H16.0124C16.3198 19.0001 16.569 18.7509 16.569 18.4435V2.53516C16.569 2.22774 16.3198 1.97852 16.0124 1.97852ZM8.46392 16.0136H13.4427C13.7501 16.0136 13.9993 16.2629 13.9993 16.5703C13.9993 16.8777 13.7501 17.1269 13.4427 17.1269H8.46392C8.15651 17.1269 7.90728 16.8777 7.90728 16.5703C7.90728 16.2629 8.15651 16.0136 8.46392 16.0136ZM7.90728 14.3436C7.90728 14.0362 8.15651 13.787 8.46392 13.787H13.4427C13.7501 13.787 13.9993 14.0362 13.9993 14.3436C13.9993 14.651 13.7501 14.9002 13.4427 14.9002H8.46392C8.15651 14.9002 7.90728 14.651 7.90728 14.3436ZM9.3331 8.25853C9.12135 7.93527 9.00405 7.55367 9.00405 7.16533V6.6419C9.00405 5.71494 9.75818 4.96077 10.6852 4.96077H12.5357C12.5875 4.96077 12.6363 4.94058 12.6729 4.90392C12.8903 4.68657 13.2428 4.68661 13.4602 4.90403C13.6775 5.12142 13.6775 5.47388 13.4601 5.69123C13.3051 5.84616 13.1181 5.9573 12.914 6.01868V7.19293C12.914 7.58054 12.8015 7.95167 12.5922 8.26833L13.1512 8.56093C13.7469 8.87276 14.1169 9.48414 14.1169 10.1566V11.1543C14.1169 11.4617 13.8677 11.711 13.5603 11.711H8.34632C8.03891 11.711 7.78968 11.4617 7.78968 11.1543V10.1566C7.78968 9.48418 8.15974 8.87276 8.75542 8.56093L9.3331 8.25853Z" fill="#3563E9"/>
<path d="M12.5073 0.55664C12.5073 0.249709 12.2576 0 11.9507 0H9.95605C9.64912 0 9.39941 0.249709 9.39941 0.55664V2.00847H12.5073V0.55664Z" fill="#3563E9"/>
<path d="M13.0036 10.1563C13.0036 9.89957 12.8623 9.66611 12.6348 9.54706L11.6397 9.02616C11.4363 9.10157 11.2196 9.14309 10.9968 9.14732C10.9844 9.14758 10.9719 9.14769 10.9594 9.14769C10.7227 9.14769 10.492 9.10413 10.2757 9.02148L9.27162 9.54706C9.04414 9.66611 8.90283 9.8996 8.90283 10.1563V10.5974H13.0036V10.1563H13.0036Z" fill="#3563E9"/>
<path d="M10.3829 7.79377C10.5454 7.95312 10.756 8.03847 10.9758 8.03439C11.4308 8.0257 11.8009 7.64819 11.8009 7.19286V6.07397H11.2314H10.6853C10.3721 6.07397 10.1174 6.32869 10.1174 6.64182V7.16525C10.1175 7.39919 10.2142 7.62826 10.3829 7.79377Z" fill="#3563E9"/>
</svg>
