<svg width="40" height="40" viewBox="0 0 40 40" fill="none" xmlns="http://www.w3.org/2000/svg">
<rect width="40" height="40" rx="20" fill="white"/>
<path d="M20 23C21.6569 23 23 21.6569 23 20C23 18.3431 21.6569 17 20 17C18.3431 17 17 18.3431 17 20C17 21.6569 18.3431 23 20 23Z" stroke="white" stroke-width="2" stroke-linecap="round" stroke-linejoin="round"/>
<path d="M23.016 15.3895V14.4565C23.016 12.4215 21.366 10.7715 19.331 10.7715H14.456C12.422 10.7715 10.772 12.4215 10.772 14.4565V25.5865C10.772 27.6215 12.422 29.2715 14.456 29.2715H19.341C21.37 29.2715 23.016 27.6265 23.016 25.5975V24.6545" stroke="#3563E9" stroke-width="1.5" stroke-linecap="round" stroke-linejoin="round"/>
<path d="M29.8096 20.0215H17.7686" stroke="#3563E9" stroke-width="1.5" stroke-linecap="round" stroke-linejoin="round"/>
<path d="M26.8811 17.1062L29.8091 20.0212L26.8811 22.9372" stroke="#3563E9" stroke-width="1.5" stroke-linecap="round" stroke-linejoin="round"/>
</svg>
