<svg width="18" height="20" viewBox="0 0 18 20" fill="none" xmlns="http://www.w3.org/2000/svg">
<path d="M8.75929 2.48926C5.70052 2.48926 3.22091 4.97129 3.22091 8.03304V9.89144C3.22091 11.4303 2.65972 12.9164 1.64252 14.0712V14.0712C0.94084 14.8678 1.41216 16.1233 2.46735 16.2394C6.87689 16.7245 10.2028 16.7336 14.9284 16.2256C15.9819 16.1124 16.4688 14.8705 15.7882 14.0583V14.0583C14.8254 12.9091 14.2977 11.4577 14.2977 9.95847V8.72341" stroke="#3563E9" stroke-width="1.5" stroke-linecap="round"/>
<path d="M10.8509 16.8298C10.8509 18.0284 9.87924 19 8.68068 19C7.48212 19 6.5105 18.0284 6.5105 16.8298" stroke="#3563E9" stroke-width="1.5"/>
<circle cx="13.4466" cy="3.89358" r="2.89358" fill="#FFD600" stroke="#FFD600" stroke-width="1.34089"/>
</svg>
