<svg width="24" height="24" viewBox="0 0 24 24" fill="none" xmlns="http://www.w3.org/2000/svg">
<path d="M18.4457 7.99316L19.2666 8.87793L20.3617 8.3707L19.7738 9.42477L20.5948 10.3096L19.4106 10.0762L18.8228 11.1304L18.6787 9.93205L17.4945 9.69871L18.5897 9.19152L18.4457 7.99316Z" fill="#F0F0F0"/>
<path d="M24 4.00049H0V20.0001H24V4.00049Z" fill="#F0F0F0"/>
<path d="M24 4H6V20.0002H24V4Z" fill="#3E9100"/>
<path d="M16.9645 14.0058C15.5096 15.057 13.478 14.7298 12.4268 13.2749C11.3755 11.82 11.7028 9.78841 13.1577 8.73723C13.6113 8.40948 14.121 8.21575 14.6396 8.14834C13.642 7.99914 12.5875 8.22395 11.7053 8.86136C9.91468 10.1552 9.51193 12.6556 10.8057 14.4463C12.0995 16.2369 14.6 16.6397 16.3907 15.3458C17.2728 14.7084 17.8173 13.7779 17.9889 12.7838C17.7621 13.2549 17.4182 13.678 16.9645 14.0058Z" fill="#F0F0F0"/>
<path d="M16.9022 8.104L17.7218 8.98722L18.815 8.48088L18.2282 9.53308L19.0477 10.4164L17.8655 10.1835L17.2787 11.2359L17.1349 10.0396L15.9528 9.80664L17.046 9.3003L16.9022 8.104Z" fill="#F0F0F0"/>
</svg>
