<svg width="19" height="20" viewBox="0 0 19 20" fill="none" xmlns="http://www.w3.org/2000/svg">
<path d="M9.10392 15.8153C9.10421 14.8267 9.37093 13.8565 9.876 13.0068C10.3811 12.157 11.1058 11.4591 11.974 10.9864C12.8422 10.5137 13.8218 10.2838 14.8096 10.3208C15.7975 10.3577 16.7571 10.6602 17.5875 11.1965C17.5934 10.7891 17.5965 10.3543 17.5965 9.88517C17.5965 7.47306 17.5145 5.96758 17.3524 4.40821H17.3754C17.2858 3.53927 16.9539 2.71297 16.4177 2.0234C15.8814 1.33383 15.1623 0.808698 14.3422 0.507813C14.2988 0.491407 14.2555 0.475782 14.2117 0.460938C13.8876 0.351997 13.5526 0.279032 13.2125 0.24336L13.1801 0.239844C11.8828 0.106641 11.6746 0 8.93907 0C6.20352 0 5.76094 0.106641 4.46485 0.241797L4.43243 0.245313C4.07547 0.2828 3.72405 0.361447 3.38516 0.479688V0.46211C2.54017 0.749406 1.79528 1.27296 1.23877 1.9707C0.68227 2.66844 0.337493 3.51111 0.245313 4.39883C0.0828126 5.96134 0 7.46837 0 9.88517C0 12.302 0.0828126 13.809 0.245313 15.3715C0.356275 16.4377 0.830571 17.4334 1.58862 18.1914C2.34667 18.9493 3.34235 19.4235 4.4086 19.5344L4.44102 19.5379C5.73829 19.6731 5.9461 19.7797 8.68165 19.7797C9.5879 19.7797 10.2442 19.768 10.7594 19.7473C10.2347 19.2358 9.81786 18.6243 9.53352 17.9489C9.24918 17.2735 9.1031 16.548 9.10392 15.8153ZM4.5336 5.20118H13.0613C13.3081 5.20118 13.5448 5.29921 13.7193 5.47371C13.8938 5.6482 13.9918 5.88487 13.9918 6.13165C13.9918 6.37842 13.8938 6.61509 13.7193 6.78959C13.5448 6.96409 13.3081 7.06212 13.0613 7.06212H4.53555C4.28878 7.06212 4.05211 6.96409 3.87761 6.78959C3.70311 6.61509 3.60508 6.37842 3.60508 6.13165C3.60508 5.88487 3.70311 5.6482 3.87761 5.47371C4.05211 5.29921 4.28878 5.20118 4.53555 5.20118H4.5336ZM4.5336 11.0438C4.29007 11.0388 4.0582 10.9385 3.88774 10.7645C3.71728 10.5905 3.62181 10.3567 3.62181 10.1131C3.62181 9.86952 3.71728 9.63565 3.88774 9.46166C4.0582 9.28767 4.29007 9.18742 4.5336 9.18243H9.39728C9.5211 9.1799 9.64418 9.20209 9.75931 9.24772C9.87445 9.29335 9.97932 9.3615 10.0678 9.44817C10.1563 9.53484 10.2265 9.6383 10.2745 9.75247C10.3225 9.86665 10.3472 9.98925 10.3472 10.1131C10.3472 10.2369 10.3225 10.3595 10.2745 10.4737C10.2265 10.5879 10.1563 10.6914 10.0678 10.778C9.97932 10.8647 9.87445 10.9328 9.75931 10.9785C9.64418 11.0241 9.5211 11.0463 9.39728 11.0438H4.5336Z" fill="#90A3BF"/>
<path d="M14.6026 11.6304C13.7749 11.6304 12.9659 11.8758 12.2777 12.3356C11.5895 12.7955 11.0531 13.449 10.7364 14.2137C10.4197 14.9784 10.3368 15.8198 10.4983 16.6315C10.6597 17.4433 11.0583 18.189 11.6435 18.7742C12.2288 19.3595 12.9744 19.758 13.7862 19.9195C14.598 20.081 15.4394 19.9981 16.2041 19.6814C16.9687 19.3646 17.6223 18.8283 18.0821 18.1401C18.542 17.4519 18.7874 16.6428 18.7874 15.8151C18.7874 14.7053 18.3465 13.6409 17.5617 12.8561C16.7769 12.0713 15.7125 11.6304 14.6026 11.6304ZM16.2612 16.4276H14.5194C14.3873 16.4276 14.2606 16.3752 14.1672 16.2818C14.0738 16.1884 14.0214 16.0617 14.0214 15.9296V13.2538C14.0214 13.1217 14.0738 12.995 14.1672 12.9016C14.2606 12.8082 14.3873 12.7558 14.5194 12.7558C14.6515 12.7558 14.7782 12.8082 14.8716 12.9016C14.965 12.995 15.0175 13.1217 15.0175 13.2538V15.4315H16.2612C16.3933 15.4315 16.52 15.484 16.6134 15.5774C16.7068 15.6708 16.7593 15.7975 16.7593 15.9296C16.7593 16.0617 16.7068 16.1884 16.6134 16.2818C16.52 16.3752 16.3933 16.4276 16.2612 16.4276Z" fill="#90A3BF"/>
</svg>
